HIERARCHY
ROOT pelvis
{
  OFFSET 0 100 0
  CHANNELS 6 Xposition Yposition Zposition Zrotation Xrotation Yrotation
  JOINT pelvis_right_femur
  {
    OFFSET -10.78128 -3.44521 -0.5502486
    CHANNELS 3 Zrotation Xrotation Yrotation
    JOINT right_femur_tibia
    {
      OFFSET -0.8047443 -44.0398 -0.1307829
      CHANNELS 3 Zrotation Xrotation Yrotation
      JOINT right_tibia_foot
      {
        OFFSET 3.006224 -47.83518 -5
        CHANNELS 3 Zrotation Xrotation Yrotation
        End Site
        {
          OFFSET 0 -5 15
        }
      }
    }
  }
  JOINT pelvis_left_femur
  {
    OFFSET 10.78128 -3.44521 -0.5502486
    CHANNELS 3 Zrotation Xrotation Yrotation
    JOINT left_femur_tibia
    {
      OFFSET 0.8047443 -44.0398 -0.1307829
      CHANNELS 3 Zrotation Xrotation Yrotation
      JOINT left_tibia_foot
      {
        OFFSET -4.370144 -48.10324 -4.275266
        CHANNELS 3 Zrotation Xrotation Yrotation
        End Site
        {
          OFFSET 0 -5 15
        }
      }
    }
  }
  JOINT pelvis_spine1
  {
    OFFSET 0 6.468898 -3.129235
    CHANNELS 3 Zrotation Xrotation Yrotation
    JOINT spine1
    {
      OFFSET 0 23.15396 4.99043
      CHANNELS 3 Zrotation Xrotation Yrotation
      JOINT spine2
      {
        OFFSET 0 20.79997 -5.064912
        CHANNELS 3 Zrotation Xrotation Yrotation
        JOINT neck
        {
          OFFSET 0 14.38658 9.616178
          CHANNELS 3 Zrotation Xrotation Yrotation
          End Site
          {
            OFFSET 0 20 0
          }
        }
      }
      JOINT right_manubrium
      {
        OFFSET -5.722621 16.35077 3.967754
        CHANNELS 3 Zrotation Xrotation Yrotation
        JOINT right_clavicle
        {
          OFFSET -13.16364 1.694482 -4.693211
          CHANNELS 3 Zrotation Xrotation Yrotation
          JOINT right_humerus
          {
            OFFSET -28.5034 -0.3100689 -2.792744
            CHANNELS 3 Zrotation Xrotation Yrotation
            JOINT right_radius
            {
              OFFSET -25.15693 0.02248979 -1.271978
              CHANNELS 3 Zrotation Xrotation Yrotation
              End Site
              {
                OFFSET -15 0 0
              }
            }
          }
        }
      }
      JOINT left_manubrium
      {
        OFFSET 5.722621 16.35077 3.967754
        CHANNELS 3 Zrotation Xrotation Yrotation
        JOINT left_clavicle
        {
          OFFSET 13.16364 1.694482 -4.693211
          CHANNELS 3 Zrotation Xrotation Yrotation
          JOINT left_humerus
          {
            OFFSET 29.39168 -1.063119 -2.237045
            CHANNELS 3 Zrotation Xrotation Yrotation
            JOINT left_radius
            {
              OFFSET 24.59957 -0.9528479 0.9047498
              CHANNELS 3 Zrotation Xrotation Yrotation
              End Site
              {
                OFFSET 15 -0 -0
              }
            }
          }
        }
      }
    }
  }
}
MOTION
Frames: 23
Frame Time: 0.0416666666667
0 103.5113 0 2.241091 -1.169404 0.2894784 1.127729 -9.63965 8.664945 -0 33.72829 -0 -5.258153 -17.93616 -2.169092 -8.087107 9.893902 -23.39412 -0 5.534198 -0 7.58144 -15.98153 26.4424 -4.348349 -5.098724 5.00744 1.999654 9.207672 -7.71439 0.8338393 22.82015 7.160757 3.25603 -23.05536 8.772933 6.355814 -19.72666 11.57234 86.32592 35.95734 -19.77431 -0 0 16.21647 -7.618148 8.270827 4.642275 5.490778 -19.47135 -1.693429 -94.77282 29.73058 22.90369 0 0 -15.95982 3.476649 17.87718 9.573341
0.3514871 104.1553 1.447731 2.203073 -1.023615 0.5131846 1.176828 -9.717366 8.463718 -0 32.259 -0 -5.290746 -17.56113 -1.900676 -8.042699 9.63949 -23.08438 -0 6.315341 -0 7.275522 -15.9016 26.04233 -4.296535 -4.9998 5.043757 2.033529 9.171998 -7.683168 0.8491874 22.74728 7.152992 3.28403 -23.09011 8.736916 6.311814 -19.62226 11.56627 86.33494 35.95609 -19.77329 -0 0 16.06667 -7.738266 8.354134 4.715066 5.527152 -19.49211 -1.692344 -94.66406 29.65906 22.74171 0 0 -16.13375 3.48022 17.74189 9.581867
0.7221392 104.7926 3.048833 2.154223 -0.8435939 0.7167432 1.231721 -9.736733 8.192774 -0 30.29062 -0 -5.335735 -17.07775 -1.538601 -7.983106 9.236977 -22.65221 -0 7.417174 -0 6.854219 -15.7546 25.49794 -4.225912 -4.868365 5.100329 2.073496 9.127828 -7.635785 0.8676802 22.65441 7.139971 3.319102 -23.12463 8.682283 6.251176 -19.48579 11.56065 86.33732 35.9533 -19.75281 -0 0 15.87125 -7.917063 8.4728 4.823443 5.569832 -19.51638 -1.690841 -94.51665 29.55294 22.53169 0 0 -16.35531 3.482091 17.55232 9.596554
1.115706 105.4231 4.835541 2.102448 -0.6506097 0.8968419 1.280571 -9.629455 7.870779 -0 27.96575 -0 -5.390356 -16.53631 -1.10695 -7.911658 8.667187 -22.11585 -0 8.803987 -0 6.339959 -15.51971 24.84315 -4.140823 -4.714803 5.179267 2.112369 9.081024 -7.571284 0.8863214 22.55216 7.120709 3.356894 -23.147 8.608042 6.177148 -19.32944 11.5578 86.32524 35.94887 -19.69954 -0 0 15.64819 -8.15547 8.623445 4.968035 5.611037 -19.53952 -1.688856 -94.33993 29.41243 22.29402 0 0 -16.59966 3.479644 17.31572 9.619213
1.535299 106.0482 6.832049 2.055188 -0.4634918 1.050708 1.313771 -9.334087 7.514468 -0 25.41126 -0 -5.451458 -15.9817 -0.6270114 -7.830179 7.912676 -21.49168 -0 10.44444 -0 5.753664 -15.17823 24.10915 -4.04518 -4.548343 5.282504 2.143711 9.036771 -7.488788 0.9024299 22.45001 7.094335 3.393575 -23.14653 8.513279 6.092632 -19.16397 11.55976 86.29173 35.94278 -19.60158 -0 0 15.41343 -8.454452 8.802908 5.149556 5.643817 -19.55732 -1.686309 -94.14221 29.23783 22.04679 0 0 -16.84469 3.470527 17.03851 9.651511
1.983284 106.671 9.055659 2.018645 -0.2974509 1.175989 1.324942 -8.803499 7.138344 -0 22.73445 -0 -5.515701 -15.45059 -0.1168813 -7.738766 6.9622 -20.79455 -0 12.30867 -0 5.114817 -14.71662 23.32382 -3.942352 -4.376704 5.41123 2.162397 8.999268 -7.387902 0.9138702 22.35569 7.060219 3.426078 -23.11486 8.397587 6.000116 -18.99839 11.56811 86.23151 35.93489 -19.44995 -0 0 15.18023 -8.81396 9.007962 5.368178 5.662636 -19.56648 -1.683178 -93.93061 29.02993 21.80506 0 0 -17.07232 3.453018 16.72658 9.694555
2.46123 107.296 11.51795 1.997317 -0.1635186 1.270725 1.311144 -8.008982 6.754595 -0 20.02146 -0 -5.579842 -14.97008 0.40862 -7.63594 5.813301 -20.03808 -0 14.36634 -0 4.441303 -14.12825 22.51136 -3.835129 -4.205927 5.565558 2.164903 8.97157 -7.268936 0.9191736 22.2748 7.01806 3.45223 -23.04657 8.261308 5.901657 -18.83975 11.58382 86.14147 35.92482 -19.23941 -0 0 14.95881 -9.232327 9.235157 5.62316 5.663667 -19.56478 -1.679536 -93.71102 28.79022 21.58038 0 0 -17.26918 3.426206 16.38548 9.748675
2.969881 107.9284 14.22587 1.993888 -0.06867467 1.333362 1.27238 -6.94057 6.373203 -0 17.33848 -0 -5.640947 -14.55774 0.9376912 -7.519104 4.472806 -19.23468 -0 16.58582 -0 3.749195 -13.41358 21.69211 -3.725747 -4.040465 5.744454 2.149293 8.955628 -7.132946 0.9175354 22.21084 6.967906 3.47073 -22.93914 8.105595 5.798916 -18.69323 11.60732 86.02071 35.91191 -18.96857 -0 0 14.75644 -9.706171 9.480825 5.912749 5.644782 -19.5511 -1.675565 -93.48815 28.52087 21.3809 0 0 -17.42647 3.389964 16.0205 9.813438
3.509173 108.5745 17.18265 2.009401 -0.01641926 1.362809 1.210714 -5.604967 6.00217 -0 14.73496 -0 -5.696454 -14.22258 1.461035 -7.385177 2.956117 -18.39555 -0 18.93372 -0 3.052631 -12.57952 20.88275 -3.616009 -3.883422 5.94582 2.114997 8.952449 -6.981675 0.908734 22.16543 6.910147 3.481031 -22.79254 7.932345 5.693237 -18.56231 11.63848 85.87035 35.8952 -18.63941 -0 0 14.57784 -10.23066 9.741178 6.234279 5.605346 -19.5253 -1.671565 -93.26563 28.22465 21.21161 0 0 -17.53936 3.344779 15.6367 9.887813
4.078272 109.2408 20.38858 2.043538 -0.007482613 1.358497 1.129326 -4.022943 5.647797 -0 12.24794 -0 -5.744044 -13.96615 1.971187 -7.231256 1.286429 -17.53086 -0 21.37413 -0 2.36391 -11.63864 20.09672 -3.507462 -3.736883 6.166576 2.062535 8.962311 -6.817505 0.8930272 22.13865 6.845516 3.483182 -22.60868 7.74413 5.585746 -18.44903 11.67675 85.69324 35.8735 -18.25687 -0 0 14.42555 -10.7999 10.01244 6.58432 5.545946 -19.48796 -1.66799 -93.04599 27.90482 21.07474 0 0 -17.60629 3.291497 15.23882 9.970427
4.67567 109.9337 23.84162 2.094919 -0.04045039 1.320486 1.0317 -2.227533 5.314978 -0 9.906886 -0 -5.781367 -13.78311 2.46175 -7.055289 -0.5052992 -16.65 -0 23.86697 -0 1.693835 -10.60882 19.34484 -3.40162 -3.602255 6.402634 1.993262 8.984974 -6.643481 0.8710681 22.12923 6.775135 3.477694 -22.39093 7.544183 5.477466 -18.35415 11.72109 85.49386 35.84541 -17.82854 -0 0 14.30035 -11.40731 10.29099 6.958797 5.468169 -19.44028 -1.665522 -92.83073 27.56505 20.96988 0 0 -17.62818 3.231058 14.83123 10.05984
5.299314 110.6597 27.53786 2.161349 -0.1122125 1.249624 0.9210071 -0.2634892 5.007511 -0 7.738408 -0 -5.80568 -13.66131 2.926604 -6.856778 -2.379423 -15.76212 -0 26.36547 -0 1.052226 -9.513478 18.63602 -3.300229 -3.480581 6.648756 1.909187 9.019864 -6.463434 0.8438558 22.1347 6.700597 3.465428 -22.14377 7.336473 5.369428 -18.27719 11.76998 85.27836 35.80931 -17.36465 -0 0 14.20149 -12.04593 10.57346 7.353041 5.37447 -19.38395 -1.665175 -92.62022 27.2094 20.89399 0 0 -17.60803 3.164239 14.41796 10.15477
5.946797 111.4244 31.47192 2.240019 -0.2182552 1.147768 0.7996785 1.812607 4.728373 -0 5.77031 -0 -5.813504 -13.58144 3.359221 -6.637512 -4.286431 -14.87687 -0 28.81365 -0 0.448428 -8.382056 17.97782 -3.205494 -3.372805 6.898362 1.812859 9.066215 -6.282128 0.8127075 22.15143 6.624061 3.447508 -21.87251 7.125806 5.262776 -18.21652 11.82135 85.05468 35.76331 -16.87821 -0 0 14.12685 -12.70858 10.85679 7.761789 5.268095 -19.32106 -1.668402 -92.41364 26.84239 20.84132 0 0 -17.55047 3.091447 14.00259 10.25436
6.615598 112.2329 35.63728 2.327688 -0.3529032 1.01803 0.6691827 3.933138 4.479913 -0 4.033768 -0 -5.800533 -13.51742 3.752279 -6.402181 -6.167006 -14.00494 -0 31.14553 -0 -0.108441 -7.249866 17.37676 -3.120179 -3.279933 7.143525 1.70726 9.123171 -6.105281 0.7792181 22.1747 6.54826 3.425242 -21.58307 6.917807 5.158809 -18.16939 11.87261 84.8324 35.70537 -16.38485 -0 0 14.07314 -13.38804 11.13836 8.179243 5.152982 -19.25406 -1.677136 -92.20903 26.46895 20.80352 0 0 -17.46155 3.012632 13.58831 10.35818
7.303338 113.0891 40.02648 2.420904 -0.5096513 0.8649499 0.5300234 6.022928 4.263894 -0 2.562568 -0 -5.76193 -13.43819 4.09783 -6.158587 -7.955049 -13.15823 -0 33.28804 -0 -0.609738 -6.15634 16.83825 -3.047464 -3.203046 7.375366 1.595658 9.189848 -5.939286 0.7451641 22.19905 6.476351 3.400011 -21.28176 6.718649 5.058941 -18.13224 11.92078 84.62229 35.63341 -15.90204 -0 0 14.03617 -14.07716 11.41591 8.599258 5.033542 -19.18558 -1.693675 -92.00361 26.09422 20.77033 0 0 -17.34823 2.927353 13.17793 10.46623
8.008034 113.9955 44.63142 2.51628 -0.681658 0.6945233 0.3819812 8.006001 4.081384 -0 1.389287 -0 -5.693032 -13.31132 4.388045 -5.917143 -9.584113 -12.3494 -0 35.16823 -0 -1.048007 -5.141368 16.36608 -2.990557 -3.143168 7.584928 1.481376 9.265368 -5.790591 0.7123422 22.21883 6.411561 3.37313 -20.97489 6.534469 4.964561 -18.10115 11.96281 84.43513 35.54555 -15.44741 -0 0 14.0114 -14.76909 11.68767 9.015729 4.914272 -19.1183 -1.720395 -91.7943 25.72318 20.73092 0 0 -17.21779 2.835011 12.77387 10.57871
8.728296 114.9533 49.44351 2.610765 -0.8623294 0.5140067 0.2245415 9.813917 3.932587 -0 0.5399611 -0 -5.590162 -13.1076 4.616254 -5.689652 -10.99544 -11.59075 -0 36.72244 -0 -1.417828 -4.240664 15.96205 -2.952176 -3.101041 7.764267 1.367525 9.348862 -5.664907 0.6823785 22.22886 6.356756 3.345717 -20.66829 6.370658 4.876858 -18.07244 11.996 84.28042 35.44046 -15.03672 -0 0 13.99451 -15.4575 11.95223 9.423063 4.799295 -19.05464 -1.759384 -91.57841 25.36025 20.67544 0 0 -17.07716 2.735152 12.37823 10.69571
9.463479 115.9628 54.4538 2.701862 -1.045826 0.3315513 0.05737087 11.39269 3.816712 -0 0.02964513 -0 -5.451212 -12.80475 4.777819 -5.487697 -12.14458 -10.893 -0 37.90397 -0 -1.716375 -3.48189 15.62582 -2.934133 -3.076936 7.907364 1.256776 9.439471 -5.566552 0.6565756 22.22505 6.314072 3.318598 -20.36701 6.231274 4.796669 -18.04317 12.0183 84.16531 35.31742 -14.68219 -0 0 13.98188 -16.1368 12.2086 9.816573 4.691982 -18.99657 -1.812128 -91.35417 25.00887 20.59637 0 0 -16.93228 2.627714 11.99283 10.81703
10.21376 117.0227 59.65315 2.787719 -1.227355 0.1557398 -0.1192947 12.70619 3.731971 0 -0.139639 0 -5.275776 -12.38941 4.87054 -5.321142 -13.00451 -10.26423 -0 38.68675 -0 -1.943488 -2.88272 15.35512 -2.937128 -3.070555 8.010557 1.151246 9.536335 -5.498128 0.6358443 22.20465 6.284738 3.292295 -20.07505 6.118779 4.724409 -18.01135 12.02849 84.09405 35.17638 -14.39168 -0 0 13.97083 -16.80219 12.45608 10.19267 4.594762 -18.94559 -1.879356 -91.12093 24.67143 20.48911 0 0 -16.78789 2.513137 11.61921 10.94202
10.98015 118.1309 65.0323 2.867092 -1.40324 -0.004888965 -0.3044066 13.73592 3.675698 -0 0.02126996 -0 -5.064919 -11.85726 4.894591 -5.197074 -13.56522 -9.709305 -0 39.06513 -0 -2.101395 -2.450884 15.14629 -2.960751 -3.081037 8.072512 1.052482 9.638576 -5.460538 0.6207212 22.16629 6.269086 3.26705 -19.79541 6.034087 4.660082 -17.97598 12.02617 84.06803 35.01783 -14.16875 -0 0 13.95969 -17.44971 12.69421 10.54881 4.509145 -18.90265 -1.961035 -90.87912 24.34928 20.35193 0 0 -16.64755 2.392331 11.25869 11.06965
11.76446 119.2848 70.58195 2.939213 -1.570834 -0.1422938 -0.4959656 14.47867 3.644537 -0 0.4897782 -0 -4.820751 -11.21211 4.852175 -5.119239 -13.83136 -9.229698 -0 39.0515 -0 -2.194374 -2.185399 14.99474 -3.003564 -3.107017 8.093917 0.9615502 9.74526 -5.453198 0.6114443 22.10978 6.266659 3.242892 -19.53015 5.976792 4.603323 -17.93685 12.01161 84.08622 34.84251 -14.01334 -0 0 13.94759 -18.07604 12.92273 10.88332 4.435883 -18.86828 -2.056453 -90.63003 24.04292 20.1854 0 0 -16.51395 2.26659 10.91238 11.19858
12.56916 120.4807 76.29281 3.003587 -1.728363 -0.2493752 -0.6908958 14.94334 3.634645 -0 1.232194 -0 -4.545995 -10.46493 4.747128 -5.087849 -13.8192 -8.823613 -0 38.67371 -0 -2.228612 -2.078131 14.89531 -3.063136 -3.146669 8.077113 0.8791473 9.855337 -5.474286 0.6080586 22.03597 6.276337 3.21969 -19.28053 5.945456 4.553433 -17.89426 11.98564 84.1456 34.65126 -13.92258 -0 0 13.93428 -18.67833 13.1415 11.19504 4.375217 -18.84273 -2.164315 -90.37555 23.75226 19.99172 0 0 -16.3895 2.137478 10.58122 11.32725
13.39711 121.7145 82.15573 3.059749 -1.874776 -0.3204556 -0.884859 15.14813 3.641876 -0 2.203135 -0 -4.243636 -9.633325 4.584605 -5.09958 -13.5542 -8.486232 -0 37.97355 -0 -2.212383 -2.115072 14.8424 -3.135962 -3.197717 8.025811 0.8057421 9.967539 -5.520924 0.6105298 21.94648 6.296425 3.197194 -19.04715 5.93784 4.509389 -17.84883 11.94952 84.24146 34.44465 -13.89165 -0 0 13.91989 -19.25387 13.35049 11.483 4.327135 -18.82605 -2.282793 -90.11794 23.47686 19.774 0 0 -16.27703 2.006757 10.26605 11.45395
